<?xml version="1.0" standalone="no"?>
<!DOCTYPE svg PUBLIC "-//W3C//DTD SVG 20010904//EN"
 "http://www.w3.org/TR/2001/REC-SVG-20010904/DTD/svg10.dtd">
<svg version="1.0" xmlns="http://www.w3.org/2000/svg"
 width="554.000000pt" height="561.000000pt" viewBox="0 0 554.000000 561.000000"
 preserveAspectRatio="xMidYMid meet">

<g transform="translate(0.000000,561.000000) scale(0.100000,-0.100000)"
fill="#000000" stroke="none">
<path d="M4155 5522 c-103 -40 -184 -114 -258 -236 -26 -42 -47 -79 -47 -82 0
-3 -6 -20 -14 -37 -8 -18 -26 -58 -40 -89 -30 -67 -29 -67 -161 -43 -105 19
-180 19 -278 -1 -105 -21 -158 -46 -210 -97 -139 -135 -103 -346 105 -618 32
-42 58 -82 58 -90 0 -9 -19 -38 -42 -66 -83 -99 -178 -261 -178 -302 0 -10 -5
-22 -12 -29 -8 -8 -12 -45 -12 -100 0 -94 14 -134 71 -199 76 -86 250 -125
464 -104 181 17 173 19 194 -36 15 -41 66 -148 114 -241 22 -42 151 -166 199
-190 59 -31 175 -31 235 -1 65 34 114 76 168 147 48 64 130 221 142 272 3 14
12 34 20 44 14 19 20 19 158 7 298 -27 461 25 530 166 60 123 21 294 -109 483
-25 36 -60 82 -78 103 -19 20 -34 41 -34 45 0 6 94 138 148 207 18 23 72 144
83 185 46 175 -2 305 -137 372 -112 56 -260 68 -457 38 -56 -9 -81 -9 -91 -1
-7 6 -26 41 -41 78 -85 207 -150 298 -269 377 -50 33 -66 38 -129 41 -40 3
-81 1 -92 -3z m177 -61 c87 -44 165 -137 230 -271 91 -190 92 -181 -27 -215
-33 -10 -77 -24 -97 -31 -96 -35 -125 -47 -151 -60 -43 -21 -77 -17 -158 17
-91 39 -128 52 -204 74 -33 9 -67 21 -75 25 -25 13 -16 69 25 155 134 284 292
390 457 306z m-632 -474 l45 -12 -1 -45 c-1 -25 -6 -65 -12 -90 -24 -98 -42
-202 -42 -236 0 -51 -62 -114 -112 -114 -41 0 -78 -31 -78 -65 0 -25 35 -65
56 -65 36 0 62 23 68 61 4 28 11 39 24 39 16 0 17 -18 16 -227 0 -156 -4 -228
-12 -231 -27 -9 -289 239 -383 363 -105 137 -158 262 -159 370 0 80 17 123 69
175 71 71 135 89 326 89 83 -1 170 -6 195 -12z m1452 -6 c85 -29 134 -65 174
-126 15 -24 19 -48 19 -115 0 -92 -16 -147 -67 -231 -15 -25 -28 -50 -28 -55
-1 -18 -126 -169 -142 -172 -9 -2 -48 26 -89 63 -39 36 -109 96 -156 133 -46
37 -86 76 -88 87 -13 67 -12 84 4 121 16 35 17 44 5 66 -23 44 -90 43 -113 -1
-16 -29 -14 -37 19 -74 30 -35 38 -61 20 -72 -8 -5 -45 10 -60 25 -12 12 -70
50 -76 50 -3 0 -25 12 -48 28 -22 15 -80 47 -128 70 -119 60 -114 70 60 128
73 24 165 51 204 60 40 9 89 20 108 24 19 4 101 8 181 9 120 1 156 -2 201 -18z
m-1290 -30 c13 -5 57 -19 98 -31 41 -13 80 -26 85 -30 6 -3 29 -12 53 -19 55
-16 57 -43 5 -69 -73 -36 -178 -95 -221 -123 -24 -16 -45 -29 -48 -29 -3 0
-17 -9 -31 -20 -14 -11 -34 -20 -44 -20 -15 0 -19 7 -18 38 0 20 4 57 9 82 5
25 15 77 23 115 14 74 34 115 54 115 7 0 22 -4 35 -9z m457 -178 c65 -31 167
-89 221 -123 8 -6 25 -14 37 -19 32 -15 147 -100 158 -119 6 -10 10 -124 10
-283 0 -253 -1 -268 -20 -289 -41 -45 -250 -172 -428 -260 l-69 -33 -61 31
c-34 18 -66 32 -71 32 -13 0 -276 159 -328 199 -60 46 -60 50 -56 357 2 189 6
245 17 258 16 19 143 104 241 160 36 21 72 42 80 47 8 5 31 16 51 25 20 8 52
24 70 34 48 27 63 25 148 -17z m556 -356 c80 -66 185 -170 185 -184 0 -28
-226 -233 -256 -233 -18 0 -19 12 -17 232 0 128 2 234 2 235 3 8 43 -16 86
-50z m-1441 -294 c39 -38 105 -95 146 -128 98 -77 109 -92 110 -140 0 -22 5
-58 10 -80 6 -22 14 -67 20 -100 5 -33 16 -82 24 -110 7 -27 11 -55 9 -62 -15
-40 -338 -54 -448 -19 -72 23 -100 39 -142 84 -43 45 -57 99 -50 193 8 105 50
193 159 340 50 67 67 84 87 88 2 1 36 -29 75 -66z m1791 -79 c30 -44 64 -103
76 -130 11 -27 25 -60 32 -72 18 -37 15 -181 -5 -222 -56 -116 -193 -168 -416
-157 -126 6 -196 19 -207 37 -4 6 3 47 14 93 10 45 25 118 31 162 7 44 15 98
19 119 5 35 16 48 89 106 45 37 108 92 140 122 32 30 69 62 82 71 23 16 25 16
57 -15 19 -18 58 -69 88 -114z m-1376 -238 c77 -51 153 -94 234 -133 31 -15
57 -33 57 -39 0 -18 -29 -44 -48 -44 -9 0 -29 -6 -44 -14 -15 -8 -41 -17 -59
-21 -19 -4 -40 -11 -49 -16 -8 -4 -39 -15 -68 -23 -52 -14 -53 -14 -69 11 -26
39 -72 285 -60 317 9 22 21 18 106 -38z m866 3 c-1 -57 -20 -151 -56 -269 -15
-52 -31 -106 -34 -120 -13 -50 -74 -177 -121 -252 -68 -107 -193 -198 -272
-198 -59 0 -147 45 -205 104 -36 37 -127 166 -127 180 0 3 -14 36 -32 73 -17
36 -31 82 -32 100 -1 38 -10 33 169 89 56 17 122 42 170 65 55 25 101 14 151
-38 35 -35 52 -46 75 -45 41 1 59 18 59 57 0 45 -23 60 -89 60 -40 0 -56 4
-56 14 0 13 12 20 118 74 30 15 70 38 88 50 19 13 41 26 49 30 8 4 40 23 70
42 30 19 60 33 65 32 6 -2 10 -24 10 -48z"/>
<path d="M3940 4422 c-24 -6 -55 -63 -69 -128 -15 -70 -2 -163 31 -228 29 -56
115 -139 173 -167 42 -19 66 -23 155 -23 100 0 108 1 162 31 90 51 143 110
173 195 31 89 30 90 -107 141 -348 131 -501 184 -518 179z"/>
<path d="M307 5333 c-16 -4 -17 -38 -14 -611 4 -646 10 -736 53 -879 24 -80
118 -278 145 -306 8 -8 21 -25 29 -37 55 -84 195 -216 300 -285 68 -45 91 -58
185 -102 37 -18 203 -63 270 -74 28 -4 341 -8 698 -8 l647 -1 0 215 0 214
-637 3 c-437 3 -647 7 -668 15 -16 6 -55 19 -85 28 -176 55 -355 229 -428 415
-42 108 -45 152 -51 795 l-6 620 -210 1 c-116 1 -218 0 -228 -3z"/>
<path d="M307 2598 c-16 -12 -17 -33 -15 -223 l3 -210 640 -5 c486 -4 645 -8
662 -17 12 -7 31 -13 43 -13 21 0 49 -10 140 -53 57 -26 184 -119 207 -152 10
-14 31 -40 46 -57 15 -18 30 -43 33 -55 4 -13 9 -23 13 -23 8 0 30 -47 60
-130 20 -55 43 -172 42 -220 0 -49 -21 -176 -36 -212 -8 -21 -23 -57 -32 -80
-29 -71 -112 -185 -178 -246 -80 -73 -255 -162 -318 -162 -13 0 -29 -6 -35
-13 -10 -9 -158 -13 -652 -15 l-640 -3 0 -208 c0 -208 0 -209 23 -215 34 -9
1245 -5 1307 4 131 21 216 44 307 86 29 13 62 29 75 34 13 6 35 18 50 28 14 9
46 29 71 44 78 48 247 201 247 225 0 7 4 13 8 13 11 0 103 143 129 200 36 78
50 113 67 168 9 28 23 74 31 101 21 69 21 430 0 491 -8 23 -15 52 -15 64 0 11
-7 34 -15 50 -8 15 -15 33 -15 38 0 11 -20 60 -54 128 -98 201 -333 432 -525
517 -31 14 -70 31 -88 39 -17 8 -38 14 -46 14 -9 0 -18 4 -22 9 -3 6 -27 13
-53 17 -26 3 -56 11 -67 17 -30 16 -375 29 -905 33 -374 3 -479 2 -493 -8z"/>
<path d="M3615 2584 c-100 -21 -202 -68 -279 -127 -55 -42 -146 -129 -146
-140 0 -5 -12 -24 -27 -44 -28 -37 -40 -64 -74 -168 -37 -114 -21 -362 29
-452 7 -12 12 -27 12 -33 0 -34 95 -150 184 -225 50 -42 181 -115 207 -115 8
0 21 -6 27 -12 10 -10 144 -14 570 -19 395 -3 570 -9 601 -17 63 -18 143 -75
169 -120 17 -31 22 -56 22 -116 0 -112 -38 -178 -133 -229 l-42 -22 -831 -3
-832 -2 -6 -23 c-3 -12 -6 -110 -6 -218 0 -156 3 -199 14 -208 10 -9 235 -11
882 -9 853 4 870 4 929 25 143 50 211 91 305 184 67 66 132 155 145 199 4 14
11 30 15 35 4 6 16 37 26 70 24 75 27 285 5 355 -39 128 -55 168 -89 217 -20
30 -41 62 -47 71 -41 65 -193 171 -315 220 -72 29 -168 35 -690 41 -601 7
-576 4 -644 83 -84 97 -50 259 68 326 28 16 100 17 866 22 l835 5 0 225 0 225
-865 1 c-476 1 -874 0 -885 -2z"/>
<path d="M349 1587 c-23 -17 -59 -104 -59 -141 0 -62 40 -157 86 -202 66 -67
115 -87 209 -87 66 0 89 5 130 26 56 28 104 76 129 126 20 42 21 107 2 114
-84 32 -308 115 -371 137 -44 16 -87 31 -95 34 -8 3 -22 0 -31 -7z"/>
</g>
</svg>
